<svg viewBox="0 0 22 22" xmlns="http://www.w3.org/2000/svg" xmlns:xlink="http://www.w3.org/1999/xlink"><style>:root&gt;svg{display:none}:root&gt;svg:target{display:block}</style><svg viewBox="0 0 10 12" id="arrow-green" xmlns="http://www.w3.org/2000/svg"><path fill-rule="evenodd" clip-rule="evenodd" d="M5.883 11.47a1 1 0 01-1.414 0L1.293 8.294c-.624-.624-.194-1.69.688-1.707l1.216-.024V1a1 1 0 011-1h2.118a1 1 0 011 1v5.484l1.142-.022c.9-.017 1.363 1.07.727 1.707l-3.3 3.3z"/></svg><svg viewBox="0 0 10 12" id="arrow-red" xmlns="http://www.w3.org/2000/svg"><path fill-rule="evenodd" clip-rule="evenodd" d="M5.883 11.47a1 1 0 01-1.414 0L1.293 8.294c-.624-.624-.194-1.69.688-1.707l1.216-.024V1a1 1 0 011-1h2.118a1 1 0 011 1v5.484l1.142-.022c.9-.017 1.363 1.07.727 1.707l-3.3 3.3z"/></svg><svg viewBox="0 0 22 22" id="close" xmlns="http://www.w3.org/2000/svg"><path fill-rule="evenodd" clip-rule="evenodd" d="M11 9.464L4.855 3.318a1.086 1.086 0 00-1.537 1.537L9.464 11l-6.146 6.145a1.086 1.086 0 001.537 1.537L11 12.536l6.145 6.146a1.086 1.086 0 101.537-1.537L12.536 11l6.146-6.145a1.086 1.086 0 10-1.537-1.537L11 9.464z"/><defs><linearGradient id="cpaint0_linear_0:456" x1="11" y1="-5" x2="-5" y2="11" gradientUnits="userSpaceOnUse"><stop stop-color="#894AC9"/><stop offset="1" stop-color="#4D46B1"/></linearGradient></defs></svg><svg viewBox="0 0 21 19" id="star" xmlns="http://www.w3.org/2000/svg"><path d="M10.5 15.75l-6.172 3.245 1.179-6.873L.514 7.255l6.9-1.002L10.5 0l3.086 6.253 6.9 1.002-4.993 4.867 1.179 6.873L10.5 15.75z"/></svg></svg>