<svg width="22" height="22" viewBox="0 0 22 22" fill="none" xmlns="http://www.w3.org/2000/svg">
<path fill-rule="evenodd" clip-rule="evenodd" d="M11 9.46364L4.85455 3.31819C4.4303 2.89394 3.74245 2.89394 3.31819 3.31819C2.89394 3.74245 2.89394 4.4303 3.31819 4.85455L9.46364 11L3.31819 17.1454C2.89394 17.5697 2.89394 18.2576 3.31819 18.6818C3.74245 19.1061 4.4303 19.1061 4.85455 18.6818L11 12.5364L17.1454 18.6818C17.5697 19.1061 18.2576 19.1061 18.6818 18.6818C19.1061 18.2576 19.1061 17.5697 18.6818 17.1454L12.5364 11L18.6818 4.85455C19.1061 4.4303 19.1061 3.74245 18.6818 3.31819C18.2576 2.89394 17.5697 2.89394 17.1454 3.31819L11 9.46364Z" fill="url(#paint0_linear_0:456)"/>
<defs>
<linearGradient id="paint0_linear_0:456" x1="11" y1="-5" x2="-5" y2="11" gradientUnits="userSpaceOnUse">
<stop stop-color="#894AC9"/>
<stop offset="1" stop-color="#4D46B1"/>
</linearGradient>
</defs>
</svg>
